<svg width="368" height="103" viewBox="0 0 368 103" fill="none" xmlns="http://www.w3.org/2000/svg">
<path d="M1.4432 35V0.0908813H7.76706V14.8693H23.9432V0.0908813H30.2841V35H23.9432V20.1704H7.76706V35H1.4432Z" fill="black"/>
<path d="M44.4233 35.5284C42.7642 35.5284 41.2699 35.2329 39.9404 34.642C38.6222 34.0397 37.5767 33.1534 36.804 31.9829C36.0426 30.8125 35.6619 29.3693 35.6619 27.6534C35.6619 26.1761 35.9347 24.9545 36.4801 23.9886C37.0256 23.0227 37.7699 22.25 38.7131 21.6704C39.6563 21.0909 40.7188 20.6534 41.9006 20.3579C43.0938 20.0511 44.3267 19.8295 45.5994 19.6932C47.1335 19.5341 48.3779 19.392 49.3324 19.267C50.2869 19.1307 50.9801 18.9261 51.4119 18.6534C51.8551 18.3693 52.0767 17.9318 52.0767 17.3409V17.2386C52.0767 15.9545 51.696 14.9602 50.9347 14.2557C50.1733 13.5511 49.0767 13.1988 47.6449 13.1988C46.1335 13.1988 44.9347 13.5284 44.0483 14.1875C43.1733 14.8466 42.5824 15.625 42.2756 16.5227L36.5142 15.7045C36.9688 14.1136 37.7188 12.7841 38.7642 11.7159C39.8097 10.6363 41.0881 9.82952 42.5994 9.29543C44.1108 8.74997 45.7813 8.47725 47.6108 8.47725C48.8722 8.47725 50.1279 8.62497 51.3779 8.92043C52.6279 9.21588 53.7699 9.70452 54.804 10.3863C55.8381 11.0568 56.6676 11.9716 57.2926 13.1307C57.929 14.2897 58.2472 15.7386 58.2472 17.4772V35H52.3154V31.4034H52.1108C51.7358 32.1307 51.2074 32.8125 50.5256 33.4488C49.8551 34.0738 49.0085 34.5795 47.9858 34.9659C46.9744 35.3409 45.7869 35.5284 44.4233 35.5284ZM46.0256 30.9943C47.2642 30.9943 48.3381 30.75 49.2472 30.2613C50.1563 29.7613 50.8551 29.1022 51.3438 28.2841C51.8438 27.4659 52.0938 26.5738 52.0938 25.6079V22.5227C51.9006 22.6818 51.571 22.8295 51.1051 22.9659C50.6506 23.1022 50.1392 23.2216 49.571 23.3238C49.0029 23.4261 48.4404 23.517 47.8835 23.5966C47.3267 23.6761 46.8438 23.7443 46.4347 23.8011C45.5142 23.9261 44.6904 24.1307 43.9631 24.4147C43.2358 24.6988 42.6619 25.0966 42.2415 25.6079C41.821 26.1079 41.6108 26.7557 41.6108 27.5511C41.6108 28.6875 42.0256 29.5454 42.8551 30.125C43.6847 30.7045 44.7415 30.9943 46.0256 30.9943Z" fill="black"/>
<path d="M86.9006 8.81815L77.5767 35H70.7585L61.4347 8.81815H68.0142L74.0313 28.267H74.304L80.3381 8.81815H86.9006Z" fill="black"/>
<path d="M101.871 35.5113C99.2458 35.5113 96.9787 34.9659 95.0696 33.875C93.1719 32.7727 91.7117 31.2159 90.6889 29.2045C89.6662 27.1818 89.1548 24.8011 89.1548 22.0625C89.1548 19.3693 89.6662 17.0057 90.6889 14.9716C91.723 12.9261 93.1662 11.3352 95.0185 10.1988C96.8708 9.05111 99.0469 8.47725 101.547 8.47725C103.161 8.47725 104.683 8.73861 106.115 9.26134C107.558 9.7727 108.831 10.5682 109.933 11.6477C111.047 12.7272 111.922 14.1022 112.558 15.7727C113.195 17.4318 113.513 19.4091 113.513 21.7045V23.5966H92.0526V19.4375H107.598C107.587 18.2557 107.331 17.2045 106.831 16.2841C106.331 15.3522 105.632 14.6193 104.734 14.0852C103.848 13.5511 102.814 13.2841 101.632 13.2841C100.371 13.2841 99.2628 13.5909 98.3083 14.2045C97.3537 14.8068 96.6094 15.6022 96.0753 16.5909C95.5526 17.5682 95.2855 18.642 95.2742 19.8125V23.4432C95.2742 24.9659 95.5526 26.2727 96.1094 27.3636C96.6662 28.4432 97.4446 29.2727 98.4446 29.8522C99.4446 30.4204 100.615 30.7045 101.956 30.7045C102.854 30.7045 103.666 30.5795 104.393 30.3295C105.121 30.0682 105.751 29.6875 106.286 29.1875C106.82 28.6875 107.223 28.0682 107.496 27.3295L113.257 27.9772C112.893 29.5 112.2 30.8295 111.178 31.9659C110.166 33.0909 108.871 33.9659 107.291 34.5909C105.712 35.2045 103.905 35.5113 101.871 35.5113Z" fill="black"/>
<path d="M124.903 19.6591V35H118.733V8.81815H124.631V13.267H124.938C125.54 11.8011 126.5 10.6363 127.818 9.7727C129.148 8.90907 130.79 8.47725 132.744 8.47725C134.551 8.47725 136.125 8.86361 137.466 9.63634C138.818 10.4091 139.864 11.5284 140.602 12.9943C141.352 14.4602 141.722 16.2386 141.71 18.3295V35H135.54V19.2841C135.54 17.5341 135.085 16.1647 134.176 15.1761C133.278 14.1875 132.034 13.6932 130.443 13.6932C129.364 13.6932 128.403 13.9318 127.563 14.4091C126.733 14.875 126.08 15.5511 125.602 16.4375C125.136 17.3238 124.903 18.3977 124.903 19.6591Z" fill="black"/>
<path d="M152.244 0.0908813V12.9432H147.54V0.0908813H152.244Z" fill="black"/>
<path d="M171.276 8.81815V13.5909H156.224V8.81815H171.276ZM159.94 2.54543H166.111V27.125C166.111 27.9545 166.236 28.5909 166.486 29.0341C166.747 29.4659 167.088 29.7613 167.509 29.9204C167.929 30.0795 168.395 30.1591 168.906 30.1591C169.293 30.1591 169.645 30.1307 169.963 30.0738C170.293 30.017 170.543 29.9659 170.713 29.9204L171.753 34.7443C171.423 34.8579 170.952 34.9829 170.338 35.1193C169.736 35.2557 168.997 35.3352 168.122 35.3579C166.577 35.4034 165.185 35.1704 163.946 34.6591C162.707 34.1363 161.724 33.3295 160.997 32.2386C160.281 31.1477 159.929 29.7841 159.94 28.1477V2.54543Z" fill="black"/>
<path d="M201.416 8.81815V13.5909H186.365V8.81815H201.416ZM190.081 2.54543H196.251V27.125C196.251 27.9545 196.376 28.5909 196.626 29.0341C196.888 29.4659 197.229 29.7613 197.649 29.9204C198.07 30.0795 198.536 30.1591 199.047 30.1591C199.433 30.1591 199.786 30.1307 200.104 30.0738C200.433 30.017 200.683 29.9659 200.854 29.9204L201.893 34.7443C201.564 34.8579 201.092 34.9829 200.479 35.1193C199.876 35.2557 199.138 35.3352 198.263 35.3579C196.717 35.4034 195.325 35.1704 194.087 34.6591C192.848 34.1363 191.865 33.3295 191.138 32.2386C190.422 31.1477 190.07 29.7841 190.081 28.1477V2.54543Z" fill="black"/>
<path d="M213.31 19.6591V35H207.139V0.0908813H213.173V13.267H213.48C214.094 11.7897 215.043 10.625 216.327 9.7727C217.622 8.90907 219.27 8.47725 221.27 8.47725C223.088 8.47725 224.673 8.85793 226.026 9.61929C227.378 10.3807 228.423 11.4943 229.162 12.9602C229.912 14.4261 230.287 16.2159 230.287 18.3295V35H224.117V19.2841C224.117 17.5227 223.662 16.1534 222.753 15.1761C221.855 14.1875 220.594 13.6932 218.969 13.6932C217.878 13.6932 216.901 13.9318 216.037 14.4091C215.185 14.875 214.514 15.5511 214.026 16.4375C213.548 17.3238 213.31 18.3977 213.31 19.6591Z" fill="black"/>
<path d="M247.997 35.5113C245.44 35.5113 243.224 34.9488 241.349 33.8238C239.474 32.6988 238.02 31.125 236.986 29.1022C235.963 27.0795 235.452 24.7159 235.452 22.0113C235.452 19.3068 235.963 16.9375 236.986 14.9034C238.02 12.8693 239.474 11.2897 241.349 10.1647C243.224 9.03975 245.44 8.47725 247.997 8.47725C250.554 8.47725 252.77 9.03975 254.645 10.1647C256.52 11.2897 257.969 12.8693 258.992 14.9034C260.026 16.9375 260.543 19.3068 260.543 22.0113C260.543 24.7159 260.026 27.0795 258.992 29.1022C257.969 31.125 256.52 32.6988 254.645 33.8238C252.77 34.9488 250.554 35.5113 247.997 35.5113ZM248.031 30.5682C249.418 30.5682 250.577 30.1875 251.509 29.4261C252.44 28.6534 253.134 27.6193 253.588 26.3238C254.054 25.0284 254.287 23.5852 254.287 21.9943C254.287 20.392 254.054 18.9432 253.588 17.6477C253.134 16.3409 252.44 15.3011 251.509 14.5284C250.577 13.7557 249.418 13.3693 248.031 13.3693C246.611 13.3693 245.429 13.7557 244.486 14.5284C243.554 15.3011 242.855 16.3409 242.389 17.6477C241.935 18.9432 241.707 20.392 241.707 21.9943C241.707 23.5852 241.935 25.0284 242.389 26.3238C242.855 27.6193 243.554 28.6534 244.486 29.4261C245.429 30.1875 246.611 30.5682 248.031 30.5682Z" fill="black"/>
<path d="M282.467 23.9886V8.81815H288.638V35H282.655V30.3466H282.382C281.791 31.8125 280.82 33.0113 279.467 33.9432C278.126 34.875 276.473 35.3409 274.507 35.3409C272.791 35.3409 271.274 34.9602 269.956 34.1988C268.649 33.4261 267.626 32.3068 266.888 30.8409C266.149 29.3636 265.78 27.5795 265.78 25.4886V8.81815H271.95V24.5341C271.95 26.1932 272.405 27.5113 273.314 28.4886C274.223 29.4659 275.416 29.9545 276.893 29.9545C277.803 29.9545 278.683 29.7329 279.536 29.2897C280.388 28.8466 281.087 28.1875 281.632 27.3125C282.189 26.4261 282.467 25.3182 282.467 23.9886Z" fill="black"/>
<path d="M306.369 45.3636C304.153 45.3636 302.25 45.0625 300.659 44.4602C299.068 43.8693 297.79 43.0738 296.824 42.0738C295.858 41.0738 295.188 39.9659 294.813 38.75L300.369 37.4034C300.619 37.9147 300.983 38.4204 301.46 38.9204C301.938 39.4318 302.58 39.8522 303.386 40.1818C304.205 40.5227 305.233 40.6932 306.472 40.6932C308.222 40.6932 309.67 40.267 310.818 39.4147C311.966 38.5738 312.54 37.1875 312.54 35.2557V30.2954H312.233C311.915 30.9318 311.449 31.5852 310.835 32.2557C310.233 32.9261 309.432 33.4886 308.432 33.9432C307.443 34.3977 306.199 34.625 304.699 34.625C302.688 34.625 300.864 34.1534 299.227 33.2102C297.602 32.2557 296.307 30.8352 295.341 28.9488C294.386 27.0511 293.909 24.6761 293.909 21.8238C293.909 18.9488 294.386 16.5227 295.341 14.5454C296.307 12.5568 297.608 11.0511 299.244 10.0284C300.881 8.99429 302.705 8.47725 304.716 8.47725C306.25 8.47725 307.511 8.73861 308.5 9.26134C309.5 9.7727 310.295 10.392 310.886 11.1193C311.477 11.8352 311.926 12.5113 312.233 13.1477H312.574V8.81815H318.659V35.4261C318.659 37.6647 318.125 39.517 317.057 40.9829C315.989 42.4488 314.528 43.5454 312.676 44.2727C310.824 45 308.722 45.3636 306.369 45.3636ZM306.42 29.7841C307.727 29.7841 308.841 29.4659 309.761 28.8295C310.682 28.1932 311.381 27.2784 311.858 26.0852C312.335 24.892 312.574 23.4602 312.574 21.7897C312.574 20.142 312.335 18.6988 311.858 17.4602C311.392 16.2216 310.699 15.2613 309.778 14.5795C308.869 13.8863 307.75 13.5397 306.42 13.5397C305.045 13.5397 303.898 13.8977 302.977 14.6136C302.057 15.3295 301.364 16.3125 300.898 17.5625C300.432 18.8011 300.199 20.2102 300.199 21.7897C300.199 23.392 300.432 24.7954 300.898 26C301.375 27.1932 302.074 28.125 302.994 28.7954C303.926 29.4545 305.068 29.7841 306.42 29.7841Z" fill="black"/>
<path d="M331.153 19.6591V35H324.983V0.0908813H331.017V13.267H331.324C331.938 11.7897 332.886 10.625 334.17 9.7727C335.466 8.90907 337.114 8.47725 339.114 8.47725C340.932 8.47725 342.517 8.85793 343.869 9.61929C345.222 10.3807 346.267 11.4943 347.006 12.9602C347.756 14.4261 348.131 16.2159 348.131 18.3295V35H341.96V19.2841C341.96 17.5227 341.506 16.1534 340.597 15.1761C339.699 14.1875 338.438 13.6932 336.813 13.6932C335.722 13.6932 334.744 13.9318 333.881 14.4091C333.028 14.875 332.358 15.5511 331.869 16.4375C331.392 17.3238 331.153 18.3977 331.153 19.6591Z" fill="black"/>
<path d="M367.494 8.81815V13.5909H352.443V8.81815H367.494ZM356.159 2.54543H362.33V27.125C362.33 27.9545 362.455 28.5909 362.705 29.0341C362.966 29.4659 363.307 29.7613 363.727 29.9204C364.148 30.0795 364.614 30.1591 365.125 30.1591C365.511 30.1591 365.864 30.1307 366.182 30.0738C366.511 30.017 366.761 29.9659 366.932 29.9204L367.972 34.7443C367.642 34.8579 367.17 34.9829 366.557 35.1193C365.955 35.2557 365.216 35.3352 364.341 35.3579C362.795 35.4034 361.403 35.1704 360.165 34.6591C358.926 34.1363 357.943 33.3295 357.216 32.2386C356.5 31.1477 356.148 29.7841 356.159 28.1477V2.54543Z" fill="black"/>
<path d="M12.5909 93.5113C10.0341 93.5113 7.8182 92.9488 5.9432 91.8238C4.0682 90.6988 2.61365 89.125 1.57956 87.1022C0.556835 85.0795 0.0454712 82.7159 0.0454712 80.0113C0.0454712 77.3068 0.556835 74.9375 1.57956 72.9034C2.61365 70.8693 4.0682 69.2897 5.9432 68.1647C7.8182 67.0397 10.0341 66.4772 12.5909 66.4772C15.1477 66.4772 17.3637 67.0397 19.2387 68.1647C21.1137 69.2897 22.5625 70.8693 23.5852 72.9034C24.6193 74.9375 25.1364 77.3068 25.1364 80.0113C25.1364 82.7159 24.6193 85.0795 23.5852 87.1022C22.5625 89.125 21.1137 90.6988 19.2387 91.8238C17.3637 92.9488 15.1477 93.5113 12.5909 93.5113ZM12.625 88.5682C14.0114 88.5682 15.1705 88.1875 16.1023 87.4261C17.0341 86.6534 17.7273 85.6193 18.1818 84.3238C18.6477 83.0284 18.8807 81.5852 18.8807 79.9943C18.8807 78.392 18.6477 76.9432 18.1818 75.6477C17.7273 74.3409 17.0341 73.3011 16.1023 72.5284C15.1705 71.7557 14.0114 71.3693 12.625 71.3693C11.2046 71.3693 10.0227 71.7557 9.07956 72.5284C8.14774 73.3011 7.44888 74.3409 6.98297 75.6477C6.52843 76.9432 6.30115 78.392 6.30115 79.9943C6.30115 81.5852 6.52843 83.0284 6.98297 84.3238C7.44888 85.6193 8.14774 86.6534 9.07956 87.4261C10.0227 88.1875 11.2046 88.5682 12.625 88.5682Z" fill="black"/>
<path d="M43.635 66.8182V71.5909H28.1577V66.8182H43.635ZM32.027 93V64.3466C32.027 62.5852 32.3906 61.1193 33.1179 59.9488C33.8565 58.7784 34.8452 57.9034 36.0838 57.3238C37.3225 56.7443 38.6975 56.4545 40.2088 56.4545C41.277 56.4545 42.2259 56.5397 43.0554 56.7102C43.885 56.8807 44.4986 57.0341 44.8963 57.1704L43.669 61.9432C43.4077 61.8636 43.0781 61.7841 42.6804 61.7045C42.2827 61.6136 41.8395 61.5682 41.3509 61.5682C40.2031 61.5682 39.3906 61.8466 38.9134 62.4034C38.4475 62.9488 38.2145 63.7329 38.2145 64.7557V93H32.027Z" fill="black"/>
<path d="M60.3736 93V66.8182H66.5441V93H60.3736ZM63.4759 63.1022C62.4986 63.1022 61.6577 62.7784 60.9531 62.1307C60.2486 61.4716 59.8963 60.6818 59.8963 59.7613C59.8963 58.8295 60.2486 58.0397 60.9531 57.392C61.6577 56.7329 62.4986 56.4034 63.4759 56.4034C64.4645 56.4034 65.3054 56.7329 65.9986 57.392C66.7031 58.0397 67.0554 58.8295 67.0554 59.7613C67.0554 60.6818 66.7031 61.4716 65.9986 62.1307C65.3054 62.7784 64.4645 63.1022 63.4759 63.1022Z" fill="black"/>
<path d="M85.9631 66.8182V71.5909H70.9119V66.8182H85.9631ZM74.6279 60.5454H80.7983V85.125C80.7983 85.9545 80.9233 86.5909 81.1733 87.0341C81.4347 87.4659 81.7756 87.7613 82.196 87.9204C82.6165 88.0795 83.0824 88.1591 83.5938 88.1591C83.9801 88.1591 84.3324 88.1307 84.6506 88.0738C84.9801 88.017 85.2301 87.9659 85.4006 87.9204L86.4404 92.7443C86.1108 92.8579 85.6392 92.9829 85.0256 93.1193C84.4233 93.2557 83.6847 93.3352 82.8097 93.3579C81.2642 93.4034 79.8722 93.1704 78.6335 92.6591C77.3949 92.1363 76.4119 91.3295 75.6847 90.2386C74.9688 89.1477 74.6165 87.7841 74.6279 86.1477V60.5454Z" fill="black"/>
<path d="M106.865 102.818C106.024 102.818 105.246 102.75 104.53 102.614C103.825 102.489 103.263 102.341 102.842 102.17L104.274 97.3636C105.172 97.625 105.973 97.75 106.678 97.7386C107.382 97.7273 108.001 97.5057 108.536 97.0738C109.081 96.6534 109.541 95.9488 109.916 94.9602L110.445 93.5454L100.95 66.8182H107.496L113.53 86.5909H113.803L119.854 66.8182H126.416L115.933 96.1704C115.445 97.5568 114.797 98.7443 113.99 99.7329C113.183 100.733 112.195 101.494 111.024 102.017C109.865 102.551 108.479 102.818 106.865 102.818Z" fill="black"/>
<path d="M141.386 93.5113C138.761 93.5113 136.494 92.9659 134.585 91.875C132.688 90.7727 131.227 89.2159 130.205 87.2045C129.182 85.1818 128.67 82.8011 128.67 80.0625C128.67 77.3693 129.182 75.0056 130.205 72.9716C131.239 70.9261 132.682 69.3352 134.534 68.1988C136.386 67.0511 138.563 66.4772 141.063 66.4772C142.676 66.4772 144.199 66.7386 145.631 67.2613C147.074 67.7727 148.347 68.5682 149.449 69.6477C150.563 70.7273 151.438 72.1023 152.074 73.7727C152.71 75.4318 153.028 77.4091 153.028 79.7045V81.5966H131.568V77.4375H147.114C147.102 76.2557 146.847 75.2045 146.347 74.2841C145.847 73.3522 145.148 72.6193 144.25 72.0852C143.364 71.5511 142.33 71.2841 141.148 71.2841C139.886 71.2841 138.778 71.5909 137.824 72.2045C136.869 72.8068 136.125 73.6022 135.591 74.5909C135.068 75.5682 134.801 76.642 134.79 77.8125V81.4432C134.79 82.9659 135.068 84.2727 135.625 85.3636C136.182 86.4432 136.96 87.2727 137.96 87.8522C138.96 88.4204 140.131 88.7045 141.472 88.7045C142.369 88.7045 143.182 88.5795 143.909 88.3295C144.636 88.0682 145.267 87.6875 145.801 87.1875C146.335 86.6875 146.739 86.0682 147.011 85.3295L152.773 85.9772C152.409 87.5 151.716 88.8295 150.693 89.9659C149.682 91.0909 148.386 91.9659 146.807 92.5909C145.227 93.2045 143.42 93.5113 141.386 93.5113Z" fill="black"/>
<path d="M171.322 66.8182V71.5909H156.271V66.8182H171.322ZM159.987 60.5454H166.158V85.125C166.158 85.9545 166.283 86.5909 166.533 87.0341C166.794 87.4659 167.135 87.7613 167.555 87.9204C167.976 88.0795 168.442 88.1591 168.953 88.1591C169.34 88.1591 169.692 88.1307 170.01 88.0738C170.34 88.017 170.59 87.9659 170.76 87.9204L171.8 92.7443C171.47 92.8579 170.999 92.9829 170.385 93.1193C169.783 93.2557 169.044 93.3352 168.169 93.3579C166.624 93.4034 165.232 93.1704 163.993 92.6591C162.754 92.1363 161.771 91.3295 161.044 90.2386C160.328 89.1477 159.976 87.7841 159.987 86.1477V60.5454Z" fill="black"/>
</svg>
