<svg width="100" height="86" viewBox="0 0 100 86" fill="none" xmlns="http://www.w3.org/2000/svg">
<path d="M97.0522 12.6248C96.559 12.7688 96.0661 12.9029 95.5732 13.0278C92.5597 13.7887 92.2827 12.7847 94.4644 10.5694C95.4415 9.57672 96.3049 8.49705 97.0546 7.33093C98.7351 4.716 97.2775 3.57563 94.4183 4.79711C93.3984 5.23284 92.3616 5.62792 91.3104 5.98015C88.3644 6.96951 84.1838 5.4771 81.5588 3.81216C78.2447 1.71057 74.4784 0.660332 70.2585 0.660332C64.3475 0.660332 59.3093 2.745 55.1409 6.91102C50.9737 11.0793 48.8891 16.1189 48.8891 22.0284C48.8891 22.8366 48.9352 23.6571 49.0265 24.4891C49.1762 25.8432 46.8956 26.8248 43.8181 26.3902C37.1609 25.4503 30.8359 23.4331 24.8418 20.3409C18.8972 17.2746 13.6506 13.4159 9.10291 8.76467C6.92903 6.54169 3.98891 6.73316 3.17722 9.73398C2.69091 11.5328 2.44904 13.4036 2.44904 15.3466C2.44904 19.0083 3.30892 22.4044 5.02903 25.5349C5.88449 27.0928 6.88636 28.5032 8.03685 29.7651C9.97198 31.8893 9.67585 33.1218 6.98219 32.3666C4.28963 31.6114 2.31643 30.4902 2.31643 30.5634C2.31643 30.6366 2.31643 30.6962 2.31643 30.6962C2.31643 35.855 3.9363 40.388 7.17808 44.2906C9.17501 46.695 11.4949 48.5523 14.1369 49.8604C16.9229 51.2404 18.2207 52.0102 16.6628 52.2118C15.7229 52.3333 14.7773 52.394 13.8262 52.394C13.1825 52.394 12.5071 52.3648 11.8025 52.3052C10.688 52.2107 10.4877 54.5328 12.1773 57.1422C13.5202 59.2157 15.239 61.0402 17.3329 62.6163C19.4626 64.2204 21.7579 65.3718 24.215 66.0731C27.2048 66.9253 27.8048 68.4777 25.1391 70.076C18.5428 74.034 11.2429 76.0127 3.24068 76.0127C2.33905 76.0127 1.47899 75.9925 0.657375 75.9531C-0.768821 75.8845 0.187985 77.1406 2.94124 78.5826C11.5446 83.0887 20.8616 85.3398 30.8935 85.3398C38.4782 85.3398 45.6013 84.139 52.2618 81.7355C58.9199 79.3323 64.6102 76.1117 69.3289 72.0762C74.0476 68.0408 78.1169 63.3997 81.5354 58.1507C84.953 52.9019 87.4992 47.422 89.1765 41.7117C90.8513 36.0002 91.69 30.2773 91.69 24.5433C91.69 24.0267 91.6856 23.5628 91.6777 23.1543C91.6619 22.3866 93.6927 20.3085 95.9596 18.1823C96.9828 17.2222 97.9588 16.2146 98.8909 15.1577C100.947 12.824 100.036 11.7546 97.0522 12.6248Z" fill="black"/>
</svg>
